<?xml version="1.0" standalone="no"?><!DOCTYPE svg PUBLIC "-//W3C//DTD SVG 1.1//EN" "http://www.w3.org/Graphics/SVG/1.1/DTD/svg11.dtd"><svg class="icon" width="200px" height="200.00px" viewBox="0 0 1024 1024" version="1.1" xmlns="http://www.w3.org/2000/svg"><path fill="#2c2c2c" d="M512 128c211.74 0 384 172.26 384 384S723.74 896 512 896 128 723.74 128 512s172.26-384 384-384m0-64C264.58 64 64 264.58 64 512s200.58 448 448 448 448-200.58 448-448S759.42 64 512 64zM693.33 416v192l-128-96 128-96m31.87-96.06c-6.49 0-13.14 2.01-19.07 6.46l-213.33 160c-17.07 12.8-17.07 38.4 0 51.2l213.33 160c5.93 4.45 12.58 6.46 19.07 6.46 16.58 0 32.13-13.11 32.13-32.06V352c0-18.95-15.55-32.06-32.13-32.06zM405.33 416v192l-128-96 128-96m31.87-96.06c-6.49 0-13.14 2.01-19.07 6.46l-213.33 160c-17.07 12.8-17.07 38.4 0 51.2l213.33 160c5.93 4.45 12.58 6.46 19.07 6.46 16.58 0 32.13-13.11 32.13-32.06V352c0-18.95-15.55-32.06-32.13-32.06z" /></svg>