<?xml version="1.0" standalone="no"?><!DOCTYPE svg PUBLIC "-//W3C//DTD SVG 1.1//EN" "http://www.w3.org/Graphics/SVG/1.1/DTD/svg11.dtd"><svg class="icon" width="200px" height="200.00px" viewBox="0 0 1024 1024" version="1.1" xmlns="http://www.w3.org/2000/svg"><path fill="#2c2c2c" d="M512 128c211.74 0 384 172.26 384 384S723.74 896 512 896 128 723.74 128 512s172.26-384 384-384m0-64C264.58 64 64 264.58 64 512s200.58 448 448 448 448-200.58 448-448S759.42 64 512 64zM330.67 416l128 96-128 96V416m-31.87-96.06c-16.58 0-32.13 13.1-32.13 32.06v320c0 18.95 15.55 32.06 32.13 32.06 6.49 0 13.14-2.01 19.07-6.46l213.33-160c17.07-12.8 17.07-38.4 0-51.2l-213.33-160c-5.94-4.45-12.59-6.46-19.07-6.46zM618.67 416l128 96-128 96V416m-31.87-96.06c-16.58 0-32.13 13.1-32.13 32.06v320c0 18.95 15.55 32.06 32.13 32.06 6.49 0 13.14-2.01 19.07-6.46l213.33-160c17.07-12.8 17.07-38.4 0-51.2l-213.33-160c-5.94-4.45-12.59-6.46-19.07-6.46z" /></svg>