<?xml version="1.0" standalone="no"?><!DOCTYPE svg PUBLIC "-//W3C//DTD SVG 1.1//EN" "http://www.w3.org/Graphics/SVG/1.1/DTD/svg11.dtd"><svg class="icon" width="200px" height="200.00px" viewBox="0 0 1024 1024" version="1.1" xmlns="http://www.w3.org/2000/svg"><path fill="#2c2c2c" d="M512 64c247.424 0 448 200.576 448 448S759.424 960 512 960 64 759.424 64 512 264.576 64 512 64z m0 68c-209.868 0-380 170.132-380 380s170.132 380 380 380 380-170.132 380-380-170.132-380-380-380zM400 352c17.673 0 32 14.327 32 32v256c0 17.673-14.327 32-32 32-17.673 0-32-14.327-32-32V384c0-17.673 14.327-32 32-32z m225 0c17.673 0 32 14.327 32 32v256c0 17.673-14.327 32-32 32-17.673 0-32-14.327-32-32V384c0-17.673 14.327-32 32-32z" /></svg>